# xmcd
#
# Track frame offsets:
#	150
#	13684
#	26115
#	48637
#	64123
#	77979
#	95035
#	113780
#	132770
#	152464
#	166629
#	196975
#	216557
#	236788
#
# Disc length: 3438 seconds
#
# Revision: 0
# Processed by: cddbd v1.5.2PL0 Copyright (c) Steve Scherf et al.
# Submitted via: EZCDAudioConverter 7.1.5.1
#
DISCID=c00d6c0e
DTITLE=Various Artist - The Life And Songs Of Kris Kristofferson
DYEAR=2017
DGENRE=Country
TTITLE0=Martina McBride - Here Comes That Rainbow Again
TTITLE1=Ryan Bingham - The Taker
TTITLE2=Jennifer Nettles - Worth Fighting For
TTITLE3=Rosanne Cash - Loving Her Was Easier (Than Anything I'll Ever Do Again
TTITLE3=)
TTITLE4=Emmylou Harris and Kris Kristofferson - The Pilgrim Chapter 33
TTITLE5=Dierks Bentley and The Travelin' McCourys - From The Bottle To The Botto
TTITLE5=m
TTITLE6=Lady Antebellum - Help Me Make It Through The Night
TTITLE7=Darius Rucker - Under The Gun
TTITLE8=Jamey Johnson and Alison Krauss - For The Good Times
TTITLE9=Hank Williams Jr - If You Don't Like Hank Williams
TTITLE10=Eric Church - To Beat The Devil
TTITLE11=Reba McEntire - Me And Bobby McGee
TTITLE12=Willie Nelson and Kris Kristofferson - Sunday Mornin' Comin' Down
TTITLE13=Kris Kristofferson (Backed By Full Ensemble) - Why Me
EXTD=
EXTT0=
EXTT1=
EXTT2=
EXTT3=
EXTT4=
EXTT5=
EXTT6=
EXTT7=
EXTT8=
EXTT9=
EXTT10=
EXTT11=
EXTT12=
EXTT13=
PLAYORDER=
